<?xml version="1.0" encoding="UTF-8" standalone="no"?>
<svg
   version="1.1"
   width="353.14508"
   height="356.82159"
   id="svg144"
   sodipodi:docname="project-blank.svg"
   inkscape:version="1.4.3 (0d15f75042, 2025-12-25)"
   xmlns:inkscape="http://www.inkscape.org/namespaces/inkscape"
   xmlns:sodipodi="http://sodipodi.sourceforge.net/DTD/sodipodi-0.dtd"
   xmlns="http://www.w3.org/2000/svg"
   xmlns:svg="http://www.w3.org/2000/svg">
  <defs
     id="defs144" />
  <sodipodi:namedview
     id="namedview144"
     pagecolor="#505050"
     bordercolor="#eeeeee"
     borderopacity="1"
     inkscape:showpageshadow="0"
     inkscape:pageopacity="0"
     inkscape:pagecheckerboard="0"
     inkscape:deskcolor="#505050"
     inkscape:zoom="1.6680432"
     inkscape:cx="224.81432"
     inkscape:cy="180.15121"
     inkscape:window-width="1908"
     inkscape:window-height="1035"
     inkscape:window-x="0"
     inkscape:window-y="0"
     inkscape:window-maximized="0"
     inkscape:current-layer="g145" />
  <path
     d="m 262.59683,0.02061496 3.24219,0.0391 3.36719,0.10157 3.41406,0.0547 c 2.7795,0.0471 5.55729,0.11288 8.33594,0.19532 2.27249,4.14652004 3.51229,7.70049004 4.1875,12.37500004 l 0.48046,3.21093 0.33204,2.41401 c 3.18391,1.04089 4.7376,1.48387 8,1 3.29367,-2.17142 6.10866,-4.48562 9.07031,-7.09375 2.92969,-1.90625 2.92969,-1.90625 5.80859,-2.10938 4.5232,1.74361 7.47604,4.62038 10.9336,7.95313 l 2.06054,1.88281 c 5.73851,5.42384 5.73851,5.42384 6.12696,10.36719 -1.59566,2.85843 -3.32904,5.39391 -5.28321,8.00781 -1.33483,1.85051 -1.33483,1.85051 -2.71679,4.99219 0.61007,3.84271 0.61007,3.84271 2,7 l 3.35937,0.29687 c 1.46364,0.15012 2.92717,0.30121 4.39063,0.45313 l 2.21093,0.1875 c 3.16702,0.34549 5.71082,0.87642 8.49219,2.45312 2.53717,4.27987 2.38894,8.71983 2.54688,13.60938 l 0.1914,3.02343 c 0.29905,7.19656 0.29905,7.19656 -1.8125,10.55469 -2.79873,1.67281 -5.25907,2.46206 -8.4414,3.17188 l -3.16016,0.73437 c -2.77734,0.51563 -2.77734,0.51563 -5.77734,0.51563 -1.04152,3.18581 -1.48342,4.7357 -1,8 2.16805,3.32721 4.48595,6.17136 7.09375,9.167955 1.90625,2.83204 1.90625,2.83204 1.88671,5.45313 -1.07482,2.60784 -2.23975,4.20225 -4.16796,6.25391 -2.42727,2.60523 -4.65581,5.23148 -6.8125,8.0625 -2.08194,2.35989 -3.13549,3.12211 -6.125,4.4375 -5.28705,-0.51165 -8.59896,-3.00703 -12.91016,-6.00391 -2.95822,-1.73673 -2.95822,-1.73673 -6.33594,-0.58594 l -2.6289,1.21485 c 0,4.13502 0.76037,6.08348 2.4414,9.70703 1.64065,6.73468 -1.85083,13.20492 -4.5039,19.23046 l -1.14258,2.6504 c -0.92416,2.14075 -1.8559,4.27784 -2.79492,6.4121 l 2.24418,-0.0336 c 6.98847,-0.1003 13.97683,-0.17637 20.96584,-0.22542 3.59298,-0.0261 7.18537,-0.0614 10.77801,-0.11813 3.46895,-0.0544 6.93732,-0.0842 10.40666,-0.0972 1.96382,-0.0137 3.9274,-0.0527 5.89087,-0.0921 l 3.639,-10e-4 3.19633,-0.0336 c 4.07365,0.85074 5.46234,2.23303 7.87911,5.60127 0.72048,2.95146 0.72453,5.81044 0.71044,8.83838 l 0.046,2.66785 c 0.0424,2.90717 0.0473,5.81288 0.0482,8.72034 0.0135,2.02917 0.028,4.05833 0.0432,6.08749 0.0254,4.25533 0.0307,8.51014 0.0236,12.76553 -0.006,5.43117 0.0517,10.85953 0.12667,16.2901 0.0483,4.19368 0.055,8.38669 0.0503,12.58061 0.004,2.00058 0.0224,4.00118 0.0558,6.00148 0.26315,17.55434 0.26315,17.55434 -5.47378,24.65565 -1.50098,1.50779 -3.04043,2.97918 -4.63061,4.39257 -1.05283,1.09712 -2.10176,2.19801 -3.14453,3.30469 l -2.66797,2.57031 c -2.63686,2.54935 -5.09906,5.0141 -7.38672,7.88282 -1.80078,2.24218 -1.80078,2.24218 -3.80078,3.24218 -2.69656,0.15677 -5.3713,0.25837 -8.07032,0.31641 l -2.41281,0.063 c -2.5472,0.0655 -5.09451,0.12437 -7.64187,0.18312 -1.72527,0.0432 -3.45053,0.0868 -5.17578,0.13086 -4.23297,0.10716 -8.46604,0.20844 -12.69922,0.30664 l 1.4707,1.21705 c 2.82488,3.29343 2.04107,7.56208 2.0293,11.72045 l 0.0859,2.74805 c 0.0194,6.5935 0.0194,6.5935 -2.75391,9.89649 -3.06432,1.53427 -5.23504,2.00365 -8.64453,2.16796 l -2.95703,0.17188 -2.23047,0.0781 c -0.71604,4.65428 0.38758,6.84902 3.0625,10.5 l 1.72266,2.15625 c 1.21484,2.34375 1.21484,2.34375 1.26172,5.23047 -1.40603,4.18137 -3.70381,6.43414 -6.85938,9.42578 l -1.61914,1.62696 c -4.73659,4.62006 -4.73659,4.62006 -8.56836,5.06054 -3.44324,-1.72161 -6.24821,-3.33665 -9.125,-5.875 -1.89358,-1.43139 -1.89358,-1.43139 -4.42187,-0.53515 -2.68554,1.18037 -2.68554,1.18037 -3.27344,3.90625 l -0.30469,2.9414 c -0.56202,5.14733 -0.56202,5.14733 -2.11084,7.20191 -2.29589,1.77069 -3.66572,1.7475 -6.54541,1.75903 l -2.80078,0.0117 -2.91797,-0.0352 -2.91797,0.0352 -2.80078,-0.0117 -2.56055,-0.0102 c -2.71492,-0.47458 -3.56935,-1.21677 -5.2207,-3.38819 -0.94922,-2.91796 -0.94922,-2.91796 -1.6875,-6.1875 l -0.76172,-3.29296 -0.55078,-2.51954 c -1.77572,-0.78176 -1.77572,-0.78176 -4,-1 -2.38726,1.34989 -4.42075,2.97299 -6.58594,4.65235 -3.20635,1.78995 -4.78474,2.01122 -8.41406,1.34765 -2.61025,-1.74555 -4.70531,-3.86695 -6.875,-6.125 l -1.79687,-1.72656 c -2.73809,-2.77593 -4.18876,-4.38618 -4.90235,-8.28906 0.64566,-3.2151 1.63727,-4.90649 3.63672,-7.48438 1.74343,-2.14348 1.74343,-2.14348 2.9375,-4.375 -0.21824,-2.22428 -0.21824,-2.22428 -1,-4 l -2.48437,-0.5159 -3.26562,-0.73438 -3.23438,-0.70312 c -3.50233,-1.21583 -4.94353,-1.96087 -7.01562,-5.04688 -0.59902,-2.99354 -0.60408,-5.89289 -0.5625,-8.9375 l -0.0723,-2.41992 c 0.0105,-4.22094 0.27774,-6.14684 2.80665,-9.6582 3.13892,-2.20245 4.84851,-2.65981 8.64062,-2.79688 l 2.95703,-0.14453 2.23047,-0.043 c 1.05207,-2.60976 1.05207,-2.60976 1,-6 -1.34341,-2.21917 -2.8604,-4.10809 -4.55469,-6.07031 -1.58991,-2.12275 -2.29522,-3.27818 -2.44531,-5.92969 1.90094,-4.0501 4.70851,-7.06495 7.8125,-10.25 l 2.51954,-2.64059 c 3.09608,-2.44785 4.72869,-3.12971 8.66797,-3.10938 2.85156,1.46875 2.85156,1.46875 5.625,3.5 3.50661,2.82912 3.50661,2.82912 7.71093,3.21875 l 1.6643,-0.71875 v -6 c -5.99545,-2.65151 -11.99116,-5.3024 -17.98707,-7.95288 -2.03782,-0.9009 -4.07558,-1.80194 -6.11328,-2.70312 -2.93644,-1.29863 -5.8731,-2.59675 -8.80981,-3.89478 l -2.74074,-1.21247 -2.60716,-1.15203 -2.26772,-1.00264 c -3.15079,-1.37796 -6.31217,-2.73015 -9.47422,-4.08208 l -0.007,1.95941 c -0.0591,15.72353 -0.13461,31.44688 -0.22847,47.17024 -0.045,7.60366 -0.0844,15.20728 -0.11072,22.81103 -0.023,6.62639 -0.0563,13.25263 -0.10227,19.87891 -0.024,3.50953 -0.0427,7.01892 -0.0489,10.52854 -0.007,3.91513 -0.0376,7.82989 -0.07,11.74489 l 0.004,3.5376 -0.038,3.22517 -0.014,2.80728 c -0.38476,2.33693 -0.38476,2.33693 -1.68702,4.13501 -2.82971,2.00331 -5.36442,1.56556 -8.69775,1.20192 -2.13604,-3.20406 -2.24208,-3.996 -2.19531,-7.66796 l 0.0195,-2.70508 0.0508,-2.81446 0.0273,-2.8496 c 0.0236,-2.32122 0.0565,-4.64193 0.0977,-6.9629 l -2.49218,0.14063 c -9.88236,0.31952 -17.06483,-1.06759 -24.82031,-7.39063 -6.09276,-5.74811 -10.35287,-12.68735 -10.91456,-21.18505 l 0.0317,-3.71338 0.009,-1.9921 c 0.0111,-2.07835 0.0362,-4.15625 0.0617,-6.23447 0.01,-1.41796 0.0192,-2.83593 0.0273,-4.2539 0.0219,-3.45718 0.0564,-6.91409 0.0977,-10.3711 l -2.33594,-0.85937 c -4.30075,-1.84138 -6.78548,-4.78604 -9.30078,-8.66406 -1.84655,-4.70897 -1.68997,-8.84802 -1.55078,-13.85157 l 0.041,-2.80859 c 0.0352,-2.27274 0.0843,-4.54426 0.14649,-6.81641 l -2.17188,-0.77343 C 89.848133,239.02726 79.360233,227.35791 70.956413,216.41123 l -1.80469,-2.25781 c -14.35872,-18.99069 -20.59603,-42.39819 -20.57021,-65.86719 l -0.002,-2.06192 c 0.0347,-25.13587 4.6299,-34.66234 4.6299,-34.66234 0,0 1.92958,-6.15774 4.24268,-11.20481 2.15294,-4.697585 5.02406,-8.934635 5.02406,-8.934635 0,0 2.70915,-4.3958 4.79715,-6.54644 2.10152,-2.95062 4.33268,-5.7086 6.6836,-8.46484 l 2.49218,-2.98438 c 7.89196,-9.16768 17.11098,-16.82529 27.507817,-23.01562 l 2,-2 c 2.81817,-1.4601 5.76212,-2.64633 8.6875,-3.875 l 2.57299,-1.08228 c 12.60687,-5.17523 25.06011,-8.28603 38.7395,-8.04272 l -0.0317,-2.24732 c -0.0415,-3.35503 -0.0676,-6.71 -0.0933,-10.06518 l -0.0508,-3.53711 -0.0195,-3.38868 -0.0317,-3.12622 c 0.22705,-2.63549 0.22705,-2.63549 2.22705,-5.63549 2.3125,-0.9375 2.3125,-0.9375 5.00001,-1 2.62675,1.52593 2.62675,1.52593 5,4 0.50925,2.712 0.69257,4.81076 0.65942,7.52246 l 0.0318,2.2776 c 0.0288,2.47852 0.0225,4.95565 0.0158,7.43431 0.0131,1.72066 0.0284,3.4413 0.0458,5.16193 0.0399,4.52429 0.05,9.04818 0.054,13.57263 0.009,4.61855 0.0467,9.23687 0.0818,13.85528 0.0646,9.05859 0.0978,18.11699 0.11133,27.17579 l 0.65643,-1.52961 c 2.25997,-5.26092 4.53324,-10.51594 6.81427,-15.76776 0.84913,-1.95978 1.69486,-3.92104 2.53711,-5.88379 1.21244,-2.82378 2.43703,-5.64201 3.66407,-8.45947 l 1.13055,-2.65509 c 3.67271,-8.36955 3.67271,-8.36955 7.19757,-10.70428 3.63302,0.18017 6.70871,1.60589 10.01172,3.0664 l 2.79492,1.2207 2.88086,1.2754 c 1.8983,0.83789 3.79798,1.67269 5.69922,2.5039 l 2.53784,1.12329 c 2.01461,0.93154 2.01461,0.93154 4.07544,0.81031 0.92017,-1.68764 0.92017,-1.68764 1,-4 -1.40981,-2.13974 -2.79236,-3.99677 -4.4375,-5.9375 -4.30847,-5.08951 -4.30847,-5.08951 -5.20703,-8.53125 1.00702,-3.95483 3.57376,-6.24346 6.39453,-9.09375 l 1.63281,-1.70899 c 1.05105,-1.09591 2.11266,-2.18181 3.18555,-3.25635 1.58496,-1.58767 1.58496,-1.58767 3.44727,-3.93701 1.98437,-1.53515 1.98437,-1.53515 4.89453,-1.51562 4.39738,1.39537 7.55044,3.93564 11.21094,6.67968 2.95989,1.67666 2.95989,1.67666 6.72656,0.50782 l 3.15239,-1.20703 0.29688,-3.35938 c 0.15011,-1.46364 0.30121,-2.92717 0.45312,-4.39062 l 0.1875,-2.21094 c 0.35784,-3.28706 0.72851,-5.60394 2.76097,-8.25781 2.87391,-2.22497004 4.34192,-2.24846004 7.94141,-2.17188004 z M 256.01871,58.223745 c -2.18293,3.37361 -3.0438,6.3274 -4.0625,10.1875 l 3.07031,1.42578 c 1.35158,0.62886 2.70314,1.25777 4.05469,1.88672 l 2.01562,0.93554 c 1.32564,0.61733 2.64875,1.24013 3.96924,1.86841 1.71647,0.80236 3.45854,1.54938 5.20264,2.2898 3.20394,1.90001 4.07338,3.40884 5.5625,6.78125 l 1.24218,2.73046 0.88282,2.08204 c 5.21852,-2.18451 7.73665,-4.52457 11,-9 1.90031,-5.70094 2.1282,-11.97658 0.0117,-17.64844 -3.16645,-5.3696 -6.73594,-7.85469 -12.63281,-9.76172 -7.50586,-1.86106 -15.0426,0.40275 -20.3164,6.22266 z m -32.4375,232.312485 c -2.27256,4.02069 -2.42039,7.35721 -1.625,11.875 2.08476,4.09508 3.76197,6.2955 8,8 4.20365,0.57904 7.91614,0.42412 11.875,-1.125 2.81485,-2.48369 3.93119,-4.29359 5.125,-7.875 0.20016,-4.53974 -0.41752,-7.98605 -2.6875,-11.9375 -6.81254,-6.07604 -14.23212,-4.71337 -20.6875,1.0625 z"
     fill="#080708"
     id="path1"
     sodipodi:nodetypes="ccccccccccccccccccccccccccccccccccccccccccccccccccccccccccccccccccccccccccccccccccccccccccccccccccccccccccccccccccccccccccccsscccccscsccccccccccccccccccccccccccccccccsccccccccccccccccccccccccccccccccccccccccccccccccccccccccccccccccccccccccc"
     style="display:inline"
     inkscape:label="bg" />
  <path
     d="m 262.95621,11.411245 c 3.3,0 6.6,0 10,0 1.77438,3.92898 2.64478,7.8004 3.4375,12.01172 0.44731,2.19836 0.44731,2.19836 2.5625,3.98828 5.66301,2.57324 11.77346,5.26837 18,4 2.41415,-1.72679 4.61119,-3.54971 6.78906,-5.56641 2.21094,-1.43359 2.21094,-1.43359 4.73438,-1.46093 3.21112,1.33205 4.52371,3.20655 6.47656,6.02734 -0.51691,0.71285 -1.03383,1.4257 -1.56641,2.16016 -4.08614,5.72814 -4.08614,5.72814 -5.68359,12.40234 1.43604,3.9491 3.19417,7.60617 5.19141,11.30078 1.05859,2.13672 1.05859,2.13672 1.05859,4.13672 5.61,0.66 11.22,1.32 17,2 0,3.3 0,6.6 0,10 -1.57201,0.29391 -1.57201,0.29391 -3.17578,0.59375 -7.40194,1.24912 -7.40194,1.24912 -13.38281,5.20703 -0.71081,2.06816 -1.08626,4.04411 -1.44141,6.19922 -0.55258,1.2433 -1.13519,2.47377 -1.75,3.6875 -1.37345,3.63965 -1.37928,4.69441 -0.25,8.3125 1.73423,2.41407 3.64264,4.582615 5.60156,6.816405 1.39844,2.18359 1.39844,2.18359 1.23828,4.32031 -1.13173,2.51086 -2.81339,4.03294 -4.83984,5.86328 -3.04417,-1.10697 -5.70455,-2.41235 -8.4375,-4.125 -3.37064,-1.93648 -5.62514,-2.53123 -9.5625,-1.875 -2.44394,1.19117 -4.67857,2.57143 -7,4 -0.66,0 -1.32,0 -2,0 -0.67305,-1.6015 -1.33822,-3.20631 -2,-4.8125 -0.37125,-0.89332 -0.7425,-1.78664 -1.125,-2.70703 -0.875,-2.48047 -0.875,-2.48047 -0.875,-5.480465 0.56848,-0.25652 1.13695,-0.51305 1.72266,-0.77734 7.25677,-3.5981 12.07569,-8.23173 15.375,-15.71094 2.85331,-8.53341 2.90105,-15.82712 -0.78125,-24.08985 -4.85341,-8.92911 -11.8375,-13.26223 -21.31641,-16.42187 -9.693,-1.10179 -16.90897,0.5127 -25,6 -5.47397,4.52676 -7.74418,10.40505 -10,17 -1.43931,-0.45261 -2.87639,-0.91233 -4.3125,-1.375 -0.80051,-0.25523 -1.60102,-0.51047 -2.42578,-0.77344 -2.26172,-0.85156 -2.26172,-0.85156 -5.26172,-2.85156 1,-7 1,-7 2.0625,-10.3125 -0.10108,-5.96352 -4.15903,-9.44237 -8.0625,-13.6875 1.41792,-2.93447 2.98333,-5.43332 5,-8 4.1143,1.41429 7.39708,3.50683 10.9375,5.97656 2.65475,1.31732 4.11606,1.40307 7.0625,1.02344 3.34104,-1.28912 3.34104,-1.28912 6.6875,-3.125 1.13824,-0.58008 2.27648,-1.16016 3.44922,-1.75781 3.42508,-2.5326 4.00617,-4.00308 4.86328,-8.11719 0.26634,-1.78397 0.47923,-3.57716 0.625,-5.375 0.18562,-2.28938 0.18562,-2.28938 0.375,-4.625 z"
     fill="#7974e1"
     id="path6"
     inkscape:label="gear-up" />
  <g
     id="g144"
     inkscape:label="gear-bottom"
     transform="translate(-364.04379,-141.58875)">
    <path
       d="M 0,0 C 1.98,0 3.96,0 6,0 6.1585547,0.83144531 6.3171094,1.6628906 6.4804687,2.5195313 6.8304492,4.1495508 6.8304492,4.1495508 7.1875,5.8125 7.4079297,6.8914453 7.6283594,7.9703906 7.8554687,9.0820313 9.267064,12.680876 10.560794,13.383677 14,15 c 1.701563,0.86625 1.701563,0.86625 3.4375,1.75 3.944666,1.384093 5.617231,1.509129 9.5625,0.25 1.03125,-0.70125 2.0625,-1.4025 3.125,-2.125 C 33,13 33,13 35.25,13.0625 37,14 37,14 39,17 38.555273,17.496289 38.110547,17.992578 37.652344,18.503906 33.958143,22.892593 33.958143,22.892593 32.8125,28.375 33.400312,30.169375 33.400312,30.169375 34,32 c 0.257812,0.843047 0.515625,1.686094 0.78125,2.554687 C 35.907615,37.498595 36.938913,39.603987 39,42 c 3.92352,1.706323 7.766721,2.473372 12,3 0,1.98 0,3.96 0,6 -0.843047,0.193359 -1.686094,0.386719 -2.554688,0.585937 C 46.801758,51.976523 46.801758,51.976523 45.125,52.375 44.034453,52.630234 42.943906,52.885469 41.820312,53.148437 38.895915,53.789062 38.895915,53.789062 37,56 c -0.692582,1.991174 -1.357476,3.992114 -2,6 -0.391875,0.680625 -0.78375,1.36125 -1.1875,2.0625 C 32.6894,66.740661 33.260439,68.212425 34,71 c 1.160646,2.472432 1.160646,2.472432 2.5625,4.8125 0.455039,0.790195 0.910078,1.580391 1.378906,2.394531 C 38.290742,78.798711 38.640078,79.390391 39,80 37.613281,81.503906 37.613281,81.503906 36,83 32.962792,82.895269 31.633788,81.723306 29.1875,79.875 26.140487,77.720083 26.140487,77.720083 22.6875,78 14.526079,79.99616 14.526079,79.99616 8.5,85.3125 7.9004599,88.535028 7.3830282,91.74426 7,95 4.69,95 2.38,95 0,95 -0.12117187,94.229141 -0.24234375,93.458281 -0.3671875,92.664062 -0.53476562,91.661172 -0.70234375,90.658281 -0.875,89.625 -1.0374219,88.627266 -1.1998438,87.629531 -1.3671875,86.601562 -1.7958802,83.857489 -1.7958802,83.857489 -4,82 c -7.688535,-3.79405 -7.688535,-3.79405 -16,-4 -2.503752,1.473695 -4.764547,3.148145 -7,5 -1.9375,-0.8125 -1.9375,-0.8125 -4,-2 -0.33,-0.99 -0.66,-1.98 -1,-3 1.129636,-1.829568 2.474608,-3.355877 3.871094,-4.988281 2.027954,-3.613829 1.367329,-6.987334 0.457031,-10.898438 C -29.936017,56.155508 -29.936017,56.155508 -35.003906,52.625 -38.008595,51.887131 -40.926174,51.338268 -44,51 c 0,-2.31 0,-4.62 0,-7 0.770859,-0.121172 1.541719,-0.242344 2.335938,-0.367188 1.504335,-0.251367 1.504335,-0.251367 3.039062,-0.507812 1.496602,-0.243633 1.496602,-0.243633 3.023438,-0.492188 C -32.857489,42.20412 -32.857489,42.20412 -31,40 c 0.765183,-1.577841 1.467015,-3.187033 2.125,-4.8125 0.353203,-0.85207 0.706406,-1.704141 1.070313,-2.582031 C -26.950236,29.838872 -26.667654,27.874093 -27,25 -28.17067,23.051583 -29.531919,21.473385 -31.003906,19.746094 -32,18 -32,18 -31.839844,15.910156 -31,14 -31,14 -28,12 c 0.580078,0.444727 1.160156,0.889453 1.757813,1.347656 4.662888,3.509268 4.662888,3.509268 10.179687,4.839844 1.010625,-0.391875 2.02125,-0.78375 3.0625,-1.1875 1.229766,-0.386719 1.229766,-0.386719 2.484375,-0.78125 C -7.5593275,15.090914 -5.4215961,14.050028 -3,12 -1.2892059,8.0779406 -0.52666044,4.2335397 0,0 Z M -7.375,40.125 C -9.6475585,44.14568 -9.7953857,47.482209 -9,52 c 2.084767,4.095078 3.7619735,6.295492 8,8 4.2036588,0.579037 7.9161405,0.424119 11.875,-1.125 C 13.689856,56.391303 14.8062,54.5814 16,51 16.200165,46.460251 15.582482,43.01395 13.3125,39.0625 6.4999617,32.986452 -0.91961263,34.349127 -7.375,40.125 Z"
       fill="#7973e1"
       id="path5"
       transform="translate(595,392)"
       inkscape:label="gear" />
    <path
       d="m 0,0 c 5.5465556,4.683758 9.4705237,9.9743147 10.238281,17.261719 0.224837,7.348607 -1.0395484,13.16486 -6.0390623,18.75 -6.1871017,5.730577 -12.19718,8.615341 -20.7070307,8.34375 C -20.535769,43.780948 -23.609849,42.181555 -27,40 c -0.886875,-0.556875 -1.77375,-1.11375 -2.6875,-1.6875 -5.674485,-5.674485 -7.656397,-10.811366 -7.9375,-18.875 0.3212,-8.681069 2.85536,-13.0329633 9.0625,-18.8125 C -19.901071,-6.2149265 -9.1566085,-5.5775373 0,0 Z M -24.375,12.125 C -26.647559,16.14568 -26.795386,19.482209 -26,24 c 2.084767,4.095078 3.761974,6.295492 8,8 4.203659,0.579037 7.91614,0.424119 11.875,-1.125 C -3.3101438,28.391303 -2.1938001,26.5814 -1,23 -0.79983469,18.460251 -1.4175181,15.01395 -3.6875,11.0625 -10.500038,4.9864523 -17.919613,6.3491271 -24.375,12.125 Z"
       fill="#070709"
       id="path7"
       transform="translate(612,420)"
       inkscape:label="circle" />
  </g>
  <g
     id="g145"
     inkscape:label="bulb"
     transform="translate(-364.04379,-141.58875)">
    <path
       d="m 0,0 v 223 c -35,0 -35,0 -40,-4 -1.313617,-2.62723 -1.212539,-4.72611 -1.316406,-7.66406 l -0.126953,-3.39844 -0.119141,-3.5625 -0.130859,-3.58594 C -41.799674,197.8595 -41.901706,194.92984 -42,192 l -2.349854,-0.92065 C -66.13859,182.20528 -81.326431,160.8834 -90.186279,139.98535 -98.469,119.7768 -102.12215,96.462179 -95.389711,75.494161 c 0.596897,-3.624614 2.671221,-9.51322 5.611275,-16.144666 2.988445,-6.740593 7.138601,-13.745412 8.25434,-15.154841 C -66.016758,19.886055 -40.288749,7.8880379 -13.164063,0.37109375 -8.8041823,-0.14025022 -4.389764,0 0,0 Z"
       fill="#fcf386"
       id="path2"
       transform="translate(521,188)"
       inkscape:label="yellow"
       sodipodi:nodetypes="cccccccccccsccc" />
    <path
       d="m 0,0 c 1.875,1.1875 1.875,1.1875 3,3 -0.4500036,7.614884 -5.4812805,11.326428 -10.625,16.4375 -0.8907422,0.935215 -1.7814844,1.87043 -2.699219,2.833984 -6.426266,6.449927 -6.426266,6.449927 -9.815429,7.205567 C -22.023437,29.285156 -22.023437,29.285156 -25,28 c -2,-3 -2,-3 -1.886475,-5.893311 1.0447,-3.661194 2.358228,-5.17096 5.070069,-7.81372 0.84498,-0.833379 1.689961,-1.666758 2.560547,-2.525391 0.888808,-0.851426 1.777617,-1.702851 2.693359,-2.580078 0.884941,-0.8707617 1.769883,-1.7415234 2.681641,-2.6386719 C -5.5242438,-1.6168518 -5.5242438,-1.6168518 0,0 Z"
       fill="#050505"
       transform="translate(438,378)"
       id="path13"
       inkscape:label="light-3" />
    <path
       d="m 0,0 c 5.3696349,1.839833 9.0156971,6.6378887 12.936768,10.58667 1.397021,1.348682 1.397021,1.348682 2.822265,2.724609 0.879785,0.878496 1.759571,1.756992 2.666016,2.66211 1.2091,1.200157 1.2091,1.200157 2.442627,2.42456 2.165959,3.084121 2.188415,4.807162 1.756592,8.501221 -1.0625,1.9375 -1.0625,1.9375 -3,3 -4.08611,0.196601 -6.057047,-0.278268 -9.335205,-2.787354 C 7.688125,24.699103 5.2103139,22.204293 2.7492676,19.64917 1.8830176,18.789365 1.0167676,17.929561 0.12426758,17.043701 -7.143903,9.6502173 -7.143903,9.6502173 -7.3757324,4.8991699 -3.6404075,-0.15450501 -3.6404075,-0.15450501 0,0 Z"
       fill="#050505"
       transform="translate(416.37573,173.10083)"
       id="path12"
       inkscape:label="light-1" />
    <path
       d="m 0,0 c 2.2681053,-0.01190288 4.5334944,-0.0610732 6.8010254,-0.11157227 1.4394398,-0.009464 2.8788964,-0.0166989 4.3183596,-0.0214844 1.312185,-0.0134546 2.62437,-0.0269092 3.976318,-0.0407715 3.246338,0.59936523 3.246338,0.59936523 5.23291,2.96630857 1.013428,2.6330566 1.013428,2.6330566 0.450928,5.3205566 -1.674529,2.693808 -2.514399,3.192253 -5.4375,4.3125 -4.466965,0.479682 -8.9474317,0.416354 -13.4375,0.4375 -1.22783202,0.03287 -2.45566405,0.06574 -3.7207031,0.09961 C -11.87644,13.022888 -11.87644,13.022888 -15.009521,10.066162 -16.657959,7.4255371 -16.657959,7.4255371 -16.595459,4.7380371 -13.878328,-1.9642203 -6.1663455,0.01536409 0,0 Z"
       fill="#050505"
       transform="translate(380.65796,284.57446)"
       id="path14"
       inkscape:label="light-2" />
    <path
       d="m 0,0 c 9.24,0 18.48,0 28,0 0,14.19 0,28.38 0,43 -16.124654,0 -16.124654,0 -21,-4 -5.1204498,-5.580841 -7.13220654,-9.782354 -7.09765625,-17.417969 0.0024976,-1.12946 0.0049951,-2.258921 0.0075684,-3.422607 C -0.08098389,16.724939 -0.07187988,15.290454 -0.0625,13.8125 -0.041875,9.254375 -0.02125,4.69625 0,0 Z"
       fill="#cbcbf6"
       transform="translate(493,421)"
       id="path8"
       inkscape:label="holder" />
  </g>
  <g
     id="g146"
     inkscape:label="box"
     transform="translate(-364.04379,-141.58875)">
    <path
       d="m 0,0 c 0.23252931,9.4752795 0.40979215,18.949566 0.51812172,28.427084 0.0520162,4.401801 0.12246235,8.801639 0.23627281,13.202311 0.10930948,4.253648 0.16857857,8.505419 0.1943779,12.760364 0.0183638,1.616448 0.0542279,3.232802 0.10852817,4.848442 0.4072805,12.629804 0.4072805,12.629804 -3.31493,18.048237 C -4.7200845,79.78969 -7.1304975,81.980513 -10,84 c -0.33,0 -0.66,0 -1,0 -0.0041,-0.559856 -0.0082,-1.119712 -0.01245,-1.696533 -0.03292,-2.539726 -0.103556,-5.077047 -0.175049,-7.615967 -0.0058,-0.881074 -0.0116,-1.762148 -0.01758,-2.669922 C -11.288528,69.578985 -11.40224,67.367292 -12,65 c -1.646916,-1.032204 -3.31358,-2.033684 -5,-3 -0.520382,-3.061068 -0.701352,-5.451004 -0.625,-8.5 -0.01934,-0.772148 -0.03867,-1.544297 -0.05859,-2.339844 C -17.664062,48.90625 -17.664062,48.90625 -17,45 c 0.831365,-0.4324 1.662729,-0.8648 2.519287,-1.310303 C -13.25276,42.853297 -13.25276,42.853297 -12,42 c 0.621765,-3.222617 0.621765,-3.222617 0.355469,-6.941406 -0.01767,-1.402978 -0.0339,-2.805975 -0.04883,-4.208985 -0.05149,-2.197507 -0.118271,-4.392078 -0.213623,-6.588134 -0.47375,-12.257804 -0.47375,-12.257804 3.1516129,-17.5187992 C -2.0768773,0 -2.0768773,0 0,0 Z"
       fill="#fcf587"
       transform="translate(704,322)"
       id="path9"
       inkscape:label="yellow" />
    <path
       d="m 0,0 c 0.7321019,-5.8411e-4 1.4642038,-0.00116821 2.2184906,-0.00177002 2.4136591,0.00278106 4.8260746,0.03387198 7.2395172,0.06524658 1.6757952,0.0074624 3.3515982,0.01315532 5.0274052,0.01715088 4.406089,0.01525683 8.811649,0.05453872 13.217529,0.09881592 4.497709,0.0409519 8.995505,0.0591949 13.493347,0.0793457 8.821847,0.0428716 17.643301,0.11112327 26.464844,0.1953125 -2.389883,5.13049754 -5.103502,9.00731194 -10,12.00000044 -5.741581,1.109811 -11.362425,0.934696 -17.1875,0.78125 -1.670057,-0.01494 -3.340149,-0.02632 -5.010254,-0.0343 C 31.089472,13.170652 26.717725,13.092207 22.344666,13.00342 17.873629,12.92125 13.40224,12.884975 8.9306641,12.844729 0.17316745,12.759199 -8.5825804,12.622847 -17.338867,12.454104 c 0.912442,-1.253088 1.830178,-2.5023207 2.75,-3.7500004 0.765703,-1.0441407 0.765703,-1.0441407 1.546875,-2.109375 0.562031,-0.7064063 1.124062,-1.4128125 1.703125,-2.140625 C -10.7632,3.7158112 -10.187533,2.9775208 -9.5944214,2.2168579 -6.4943169,-0.20592976 -3.7711635,-0.07895119 0,0 Z"
       fill="#fd6fc6"
       transform="translate(628.33887,312.5459)"
       id="path10"
       inkscape:label="pink" />
    <path
       d="m 0,0 c 0.23252931,9.4752795 0.40979215,18.949566 0.51812172,28.427084 0.0520162,4.401801 0.12246235,8.801639 0.23627281,13.202311 0.10930948,4.253648 0.16857857,8.505419 0.1943779,12.760364 0.0183638,1.616448 0.0542279,3.232802 0.10852817,4.848442 0.4072805,12.629804 0.4072805,12.629804 -3.31493,18.048237 C -4.7200845,79.78969 -7.1304975,81.980513 -10,84 c -0.33,0 -0.66,0 -1,0 -0.02973,-0.847639 -0.02973,-0.847639 -0.06006,-1.712402 -0.09512,-2.554678 -0.204852,-5.108523 -0.314941,-7.662598 -0.03094,-0.889453 -0.06188,-1.778906 -0.09375,-2.695313 -0.03867,-0.850781 -0.07734,-1.701562 -0.117188,-2.578125 -0.03142,-0.785522 -0.06284,-1.571044 -0.09521,-2.380371 C -11.839947,64.769971 -11.839947,64.769971 -14,63 c -2.5,-0.333333 -2.5,-0.333333 -5,0 -2.754395,2.754395 -2.309893,4.466032 -2.414062,8.320312 -0.03561,1.131959 -0.07122,2.263917 -0.107911,3.430176 -0.051,2.165384 -0.051,2.165384 -0.103027,4.374512 -0.185625,6.868125 -0.185625,6.868125 -0.375,13.875 -12.87,0 -25.74,0 -39,0 0.66,-1.65 1.32,-3.3 2,-5 0.593848,-2.467788 0.593848,-2.467788 0,-5 -1.656665,-2.157791 -3.187426,-3.88772 -5.125,-5.75 -0.474375,-0.493711 -0.94875,-0.987422 -1.4375,-1.496094 C -68.85854,72.502408 -71.332726,70.974974 -76,71 c -2.408393,1.188826 -2.408393,1.188826 -4.5,3 -4.104167,3.013889 -4.104167,3.013889 -8.0625,2.875 C -89.366875,76.58625 -90.17125,76.2975 -91,76 c -0.28875,-1.010625 -0.5775,-2.02125 -0.875,-3.0625 -0.188203,-0.634219 -0.376406,-1.268438 -0.570312,-1.921875 C -92.97353,69.096188 -93.365734,67.140853 -93.75,65.1875 -94.1625,64.135625 -94.575,63.08375 -95,62 c -1.98,-0.66 -3.96,-1.32 -6,-2 0,-15.18 0,-30.36 0,-46 26.07,0 52.14,0 79,0 0.33,9.24 0.66,18.48 1,28 1.827032,2.249191 1.827032,2.249191 4.5,2.25 2.672968,-8.09e-4 2.672968,-8.09e-4 4.5,-2.25 0.206962,-3.143284 0.206962,-3.143284 0.0625,-6.84375 -0.0089,-1.406237 -0.01537,-2.812491 -0.01953,-4.21875 -0.01415,-2.208951 -0.04217,-4.413242 -0.114746,-6.621094 C -12.439651,12.079772 -12.439651,12.079772 -8.7421875,6.7382812 -2.0704337,0 -2.0704337,0 0,0 Z"
       fill="#96e2fd"
       id="path4"
       transform="translate(704,322)"
       inkscape:label="blue" />
  </g>
  <g
     id="g147"
     inkscape:label="doc"
     transform="translate(-364.04379,-141.58875)">
    <path
       d="m 0,0 c 8.6703427,2.044817 15.710535,5.8169325 23.375,8.9375 13.302954,5.866883 26.630576,11.677401 39.964844,17.472656 L 67,28 c -0.753719,3.669848 -2.198131,6.891231 -3.722656,10.304687 -9.296322,20.845642 3.883478,-8.645545 -8.191651,18.507325 C 53.968993,60.091048 53.785214,62.564071 54,66 c 11.172758,5.723375 22.489814,10.990938 34,16 -1.548266,4.957579 -3.517809,9.638104 -5.625,14.375 l -0.984375,2.230469 C 80.596155,100.40471 79.798412,102.2025 79,104 l -1.81665,-0.0193 c -2.749846,-0.009 -5.496391,0.0361 -8.24585,0.0818 l -2.857422,-0.0332 c -5.180164,0.12634 -8.289021,0.55127 -12.048828,4.2832 C 52.995622,109.5205 51.981627,110.74772 51,112 l -1.933594,2.15234 -1.503906,1.78516 c -3.115281,3.62275 -6.432204,6.97756 -9.863281,10.30078 -3.186167,3.30336 -3.953074,5.40208 -4.018067,9.87573 l -0.06021,3.1541 -0.035,3.39986 -0.05869,3.48469 c -0.05985,3.67821 -0.106203,7.35644 -0.152252,11.03484 -0.03818,2.49155 -0.07723,4.98309 -0.117188,7.47461 C 33.161696,170.77462 33.076665,176.88721 33,183 c -4.472293,-0.58358 -8.147185,-1.74005 -12.269531,-3.55469 -6.319626,-2.77278 -12.6379704,-5.54865 -18.9516604,-8.33496 -6.0936024,-2.69258 -12.1924166,-5.37331 -18.2905276,-8.05566 -2.196218,-0.96629 -4.392426,-1.93259 -6.588623,-2.89893 C -24.733561,159.43717 -26.36678,158.71859 -28,158 c -0.448719,-11.64221 -0.781927,-23.28223 -0.984431,-34.93146 -0.09741,-5.41528 -0.228378,-10.82449 -0.448919,-16.23626 -1.196002,-30.167859 2.648306,-52.854449 16.781763,-79.697996 C -4.8863457,12.351154 -2.4508498,2.4508498 0,0 Z"
       fill="#eeeefd"
       id="path3"
       inkscape:label="bg"
       sodipodi:nodetypes="cccccccccccccccccccccccccccscsccccc"
       transform="translate(559,198)" />
    <path
       d="M -0.24347811,-0.09739124 0.89632888,-3.0217521 2,0 c 1.6748227,4.26768 3.338455,8.5396349 5,12.8125 l 1.4453125,3.681641 1.3671875,3.52539 1.269531,3.253174 C 12,26 12.151495,26.193445 12.644817,29.193445 5.7048307,27.03181 -1.4311757,24.106379 -8,21 -5.4821699,13.866532 -3.0128538,7.021571 -0.24347811,-0.09739124 Z"
       fill="#c8c8f0"
       id="path15"
       transform="translate(632,238)"
       inkscape:label="fold"
       sodipodi:nodetypes="cccccccccc" />
  </g>
</svg>
