<?xml version="1.0" encoding="UTF-8" standalone="no"?>
<!-- Created with Inkscape (http://www.inkscape.org/) -->

<svg
  version="1.1"
  id="svg1"
  width="495"
  height="504"
  viewBox="0 0 495 504"
  sodipodi:docname="icon.svg"
  inkscape:version="1.4.3 (0d15f75042, 2025-12-25)"
  xml:space="preserve"
  inkscape:export-filename="icon.png"
  inkscape:export-xdpi="99.636742"
  inkscape:export-ydpi="99.636742"
  xmlns:inkscape="http://www.inkscape.org/namespaces/inkscape"
  xmlns:sodipodi="http://sodipodi.sourceforge.net/DTD/sodipodi-0.dtd"
  xmlns="http://www.w3.org/2000/svg"
  xmlns:svg="http://www.w3.org/2000/svg"
  xmlns:rdf="http://www.w3.org/1999/02/22-rdf-syntax-ns#"
  xmlns:cc="http://creativecommons.org/ns#"
  xmlns:dc="http://purl.org/dc/elements/1.1/"><title
     id="title9">portosaurus Icon</title><defs
     id="defs1"><inkscape:path-effect
       effect="mirror_symmetry"
       start_point="181.50582,92.25969"
       end_point="181.50582,109.79393"
       center_point="181.50582,101.02681"
       id="path-effect2"
       is_visible="true"
       lpeversion="1.2"
       lpesatellites=""
       mode="free"
       discard_orig_path="false"
       fuse_paths="false"
       oposite_fuse="false"
       split_items="false"
       split_open="false"
       link_styles="false" /><inkscape:path-effect
       effect="mirror_symmetry"
       start_point="272.95162,65.713251"
       end_point="272.95162,103.16627"
       center_point="272.95162,84.439761"
       id="path-effect1595"
       is_visible="true"
       lpeversion="1.2"
       lpesatellites=""
       mode="free"
       discard_orig_path="false"
       fuse_paths="false"
       oposite_fuse="false"
       split_items="false"
       split_open="false"
       link_styles="false" /></defs><sodipodi:namedview
     id="namedview1"
     pagecolor="#505050"
     bordercolor="#eeeeee"
     borderopacity="1"
     inkscape:showpageshadow="0"
     inkscape:pageopacity="0"
     inkscape:pagecheckerboard="0"
     inkscape:deskcolor="#2c2c2c"
     inkscape:zoom="1.1621107"
     inkscape:cx="166.50737"
     inkscape:cy="257.72071"
     inkscape:window-width="1908"
     inkscape:window-height="1035"
     inkscape:window-x="0"
     inkscape:window-y="0"
     inkscape:window-maximized="0"
     inkscape:current-layer="body"
     showguides="true" /><g
     id="browser"
     inkscape:label="browser"
     transform="matrix(0.99535414,0,0,1,2.2644402,0)"><path
       id="browser-window"
       style="fill:#f8f7da;fill-opacity:1;stroke-width:1.02611"
       inkscape:label="window"
       d="M 60.221378,101.88605 H 486.35497 c 0,0 -0.0203,184.53222 0.007,279.72673 4.1e-4,1.44864 -1.54452,3.12865 -3.25041,3.12309 -18.42035,-0.06 -422.889772,0.007 -422.889772,0.007 z"
       sodipodi:nodetypes="ccsscc" /><g
       id="browser-title-bar"
       inkscape:label="title-bar"
       transform="matrix(1.0021771,0,0,1,-0.15356685,0.0943586)"><path
         style="fill:#9cb9d2;stroke:none;stroke-width:1.00217"
         d="m 272.79935,99.071004 -8e-5,-37.14364 c 0,0 -207.916068,-0.239647 -207.977086,-0.233474 -1.543998,0.156189 -4.664941,2.579122 -4.665437,3.824616 l -0.0134,33.634687 z m 0.30454,0 8e-5,-37.14364 c 0,0 207.91607,-0.239647 207.97709,-0.233474 1.54399,0.156189 4.66494,2.579122 4.66543,3.824616 l 0.0134,33.634687 z"
         id="path146"
         sodipodi:nodetypes="ccsscc"
         inkscape:label="bar"
         inkscape:path-effect="#path-effect1595"
         inkscape:original-d="m 272.79935,99.071004 -8e-5,-37.14364 c 0,0 -207.916068,-0.239647 -207.977086,-0.233474 -1.543998,0.156189 -4.664941,2.579122 -4.665437,3.824616 l -0.0134,33.634687 z"
         transform="matrix(0.99890783,0,0,1,0.13227889,0.33212117)"
         sodipodi:insensitive="true" /><g
         id="g1594"
         inkscape:label="close buttons"
         transform="translate(0,-0.92844841)"
         sodipodi:insensitive="true"><ellipse
           style="display:inline;fill:#40ff3d;fill-opacity:1;stroke-width:1.00037"
           id="path1593-6"
           cx="107.48429"
           cy="81.932358"
           rx="6.8615723"
           ry="7.0869713"
           inkscape:label="button-3" /><ellipse
           style="fill:#ffc710;fill-opacity:1;stroke-width:1.00037"
           id="title-bar-button-2"
           cx="90.15123"
           cy="81.687279"
           rx="6.8720798"
           ry="7.0869713"
           inkscape:label="button-2" /><ellipse
           style="display:inline;fill:#f92020;fill-opacity:1;stroke-width:1.00037"
           id="path1593"
           cx="73.612823"
           cy="81.624481"
           rx="6.8615723"
           ry="7.0869713"
           inkscape:label="button-1" /></g></g></g><g
     id="body"
     transform="translate(0.86355577,-0.7634732)"
     inkscape:label="body"><path
       id="black-border"
       style="display:inline;fill:#000000;fill-opacity:1;stroke-width:1.24118"
       d="m 402.55604,283.86104 c 2.00351,12.82834 -3.97827,18.95079 -12.51788,25.55667 -8.2791,6.40437 -6.53776,2.84944 -9.96109,10.83073 -5.42301,12.64343 -3.86615,28.16063 -10.3519,44.39262 -7.13236,17.85029 -13.50431,33.23841 -23.47927,47.16673 -1.8924,2.6424 -7.05163,18.41358 -7.13603,21.56151 -0.34343,12.80919 -2.64021,17.78159 -3.7789,26.38498 -1.559,11.77905 1.65539,15.73057 5.04977,20.68691 5.28658,7.71928 10.18074,11.71529 4.84895,13.23912 -12.08505,3.45392 -34.5002,4.13975 -46.40152,3.7571 -17.2751,-0.55542 -23.7365,-3.75748 -23.7365,-3.75748 -2.39077,-3.53772 1.52417,-7.97526 2.14206,-15.98034 0.26113,-3.38313 3.82843,-12.77623 0.95596,-14.75359 -1.72793,-1.18948 -10.33135,2.4604 -14.72445,3.34507 -10.49332,2.11311 -15.64436,3.10811 -23.44363,3.50188 -8.58328,0.43336 -22.21274,2.329 -25.27354,3.62007 -4.63847,1.95655 7.51312,13.26299 10.83521,16.80211 7.92099,8.43849 -9.9469,8.86913 -22.3455,9.24261 -12.65181,0.38111 -19.59657,0.30343 -24.38851,0.2908 -4.43331,-0.0117 -20.11354,-0.41533 -24.40386,-1.05247 -7.30511,-1.08485 -9.88972,-6.08594 -10.93058,-11.17924 -5.47098,-26.77136 -4.74434,-22.59215 -6.52587,-30.13126 -2.84204,-12.02704 -1.68306,-18.15479 -12.02498,-18.6852 0,0 -15.48229,-1.84428 -20.28134,-2.24803 -8.619037,-0.72513 -22.952676,-4.19721 -33.067709,-8.36877 C 63.88593,424.89604 49.755247,419.44858 44.22581,415.79982 37.367341,411.27405 27.936058,402.50701 23.128126,396.99957 7.6701979,379.29265 3.2432844,363.35836 1.7214692,353.83673 c -1.44352907,-9.03181 -2.39917434,-15.02894 -0.474573,-17.235 1.8576162,-2.12928 3.5456218,-0.67969 7.5450644,1.40889 3.5507574,1.85427 16.6126264,11.32804 19.7366664,14.17884 9.267508,8.45696 15.833569,10.01169 20.340314,11.6803 1.147244,0.42476 3.510521,0.8173 5.599696,-0.15819 2.873092,-1.34153 5.620611,-4.40613 7.541082,-5.68478 4.481262,-2.98363 9.003145,-3.2018 9.003145,-3.2018 3.104252,-0.67802 9.883937,0.20084 12.142973,1.58616 8.951498,5.48936 8.720621,9.54846 11.352577,9.89351 9.221476,1.20894 13.371606,-3.93877 21.795856,-6.12168 2.10062,-0.54431 2.04525,5.27882 3.46305,4.64229 4.60504,-2.06745 8.11467,-13.15713 8.82423,-15.01865 0.61996,-1.62646 0.0655,-1.64186 -1.88049,-5.90843 -1.63246,-3.57923 -2.2981,-4.95423 -3.04265,-9.20889 -0.43673,-2.49569 -0.6549,-7.71946 0.39972,-10.22712 1.12288,-2.66996 3.68081,-8.10404 9.0308,-9.93821 5.71441,-1.9591 10.73845,-3.48372 11.82447,-4.51534 1.49592,-1.42099 2.93318,-2.79362 2.93318,-2.79362 1.74293,-1.60177 4.97683,-7.7234 7.14168,-11.71981 2.47838,-4.5752 5.94686,-7.63177 8.64593,-13.39035 0.81087,-1.73003 0.93154,-3.539 0.96282,-5.08519 0.0342,-1.68758 0.19823,-5.13223 0.48557,-6.92827 0.85971,-5.37367 1.27094,-5.81646 2.15381,-8.00057 0.91874,-2.27284 2.80718,-3.90202 4.86683,-5.62386 2.65057,-2.21585 8.54924,-3.16053 10.79718,-3.28946 2.58473,-0.14823 5.05642,0.42223 10.2923,1.2353 2.73653,0.42495 4.78591,-1.01468 7.14837,-1.93823 4.05359,-1.58466 7.93126,-3.42314 9.85206,-4.52862 2.67178,-1.5377 7.25146,-3.67741 10.07877,-5.7975 1.2165,-0.91221 3.42158,-2.60974 4.17546,-3.49985 1.05374,-1.24417 1.48508,-2.83124 2.19289,-4.51808 2.00089,-4.76847 3.75914,-13.89262 8.11509,-16.03595 7.99473,-3.93376 16.16364,-5.10849 23.22095,-6.72511 7.64295,-1.75079 13.19693,-3.77501 18.45895,-5.82621 22.38008,-8.72401 8.9097,-7.089 -7.35483,-5.33514 -7.55862,0.81507 -17.1932,0.79295 -21.23719,0.70417 -16.19656,-0.35557 -45.32953,0.81804 -54.85246,-1.3117 -15.89175,-3.55408 -18.30591,-7.41385 -23.51387,-14.27837 -4.53787,-5.98127 -6.26129,-16.40993 -6.26129,-16.40993 0.30636,-0.41693 -11.26907,-1.78935 -14.52028,-5.1509 -5.4774,-5.66328 -8.01375,-15.15023 -9.45984,-22.74834 -3.95418,-20.77631 -6.99516,-40.56164 -6.99516,-40.56164 -1.19916,-31.810074 9.12356,-41.014971 9.12356,-41.014971 18.38329,-18.410928 30.11746,-20.751299 60.07971,-30.433356 19.79496,-6.396581 26.96245,-8.11905 45.15914,-11.304409 1.8446,-0.3229 -12.82257,24.671231 -9.54805,21.775816 14.0779,-12.448042 21.5417,-18.81202 34.02787,-25.850386 7.29463,-4.1119312 18.84851,-7.6953797 30.40734,-7.2853981 9.39906,0.3333765 27.76159,5.2197761 36.06783,11.4297231 2.28915,1.711419 7.87827,1.46378 14.6268,0.920051 8.22994,-0.663087 15.71072,7.3449 16.15388,10.926519 1.35529,10.953555 -1.53107,15.730539 -1.53107,15.730539 -1.06894,3.159543 -3.01504,8.214203 -2.61948,9.675973 2.32493,8.591753 3.68928,14.144828 5.04536,22.34093 1.72921,10.451242 2.58857,12.649026 5.89562,15.283377 2.66143,2.120057 5.04597,3.782164 7.30257,5.735615 4.07649,3.528847 6.3988,7.511727 6.78415,11.166947 0.83665,7.93586 -0.44445,12.10397 -5.85381,17.34061 -4.74586,4.59433 -7.9192,6.79693 -8.14495,8.14193 -0.59101,3.52113 -0.61357,3.19587 -0.37893,6.73728 0.42062,6.34823 0.58054,12.64317 0.63881,18.61533 0.1007,10.32017 1.07272,9.1776 2.36569,13.34759 0.65084,2.09903 2.65116,3.81153 4.815,5.31321 2.20662,1.53138 6.5287,5.06711 8.3211,6.90101 0.92712,0.94859 5.62166,7.38391 4.45402,12.66871 -2.36476,10.70311 -6.68294,13.0633 -12.0472,16.19109 -4.92806,2.87346 -4.10917,4.03028 -4.35444,8.06733 -0.18579,3.058 -0.11996,5.78646 0.20068,8.91326 0.64306,6.27087 1.17604,11.70863 1.45053,16.01503 0.40118,6.29402 0.28207,8.829 0.38833,9.25221 1.10149,4.38697 4.47255,5.98768 7.98806,9.13027 3.62497,3.24043 12.77788,13.13356 13.4876,17.67781 z"
       sodipodi:nodetypes="sssssssssssssssssssssssssssssssssssssssssssssssssssssssssssssssssscsssssssssssssssssssssssssssssssss"
       inkscape:label="black-border" /><path
       style="fill:#60fc02;stroke:none"
       d="m 328.80864,431.40919 c -13.67951,12.51954 -24.91435,16.10664 -38.72937,27.78425 -6.20341,5.24365 -5.56622,23.16394 -7.27621,29.08839 13.44525,3.97424 38.09793,2.58093 52,0 -1.41269,-5.95853 -9.34277,-11.16473 -9.25308,-17 0.13534,-8.80652 6.20516,-29.90734 3.25866,-39.87264 z"
       id="right-leg"
       inkscape:label="right leg"
       sodipodi:nodetypes="csccsc" /><path
       id="belly"
       style="fill:#ffffff;stroke-width:1.49403"
       d="m 344.15217,396.92515 c -5.59125,10.47675 -25.12538,32.74819 -55.73854,49.46913 -1.81456,0.99111 -17.99328,7.5697 -34.31098,10.92302 -22.83651,4.69295 -46.4408,5.13486 -33.90207,0.29654 2.4026,-0.92709 5.06382,-3.65208 9.4162,-10.128 5.86825,-8.7314 8.58603,-16.0554 9.78043,-19.50757 5.02956,-14.53692 1.36598,-23.7918 -0.63448,-36.83702 -0.6957,-4.53675 9.8641,-2.65469 11.69168,-7.08484 9.23357,-22.38275 22.62586,-46.05034 24.44891,-49.09358 0,0 9.56063,-83.704 24.34262,-103.61884 6.60741,-8.90174 18.20954,-6.97011 26.23085,-6.97011 6.86198,0 21.64862,-0.14813 31.9414,6.60051 5.35633,3.51197 9.21748,12.07039 11.88695,17.01666 0.98566,1.82634 1.84213,2.06273 1.91175,4.18683 2.92553,89.26299 -9.93056,112.64167 -27.06472,144.74727 z"
       inkscape:label="belly"
       sodipodi:nodetypes="sssssssssssssss" /><path
       id="head-border"
       style="stroke-width:0.979047"
       d="m 258.86847,258.5188 h 13.61875 c 8.26418,0 7.36574,20.47598 15.94815,19.78185 5.41865,-0.43825 8.02709,0.65822 14.88353,3.66402 5.72414,2.50941 11.31241,5.89935 11.86483,15.71696 0.88343,15.70008 -5.614,21.65777 -15.70298,28.50707 -10.53591,7.1527 -26.99353,8.18217 -26.99353,8.18217 h -13.61875 c -21.01103,0 -37.92604,-16.91501 -37.92604,-37.92603 0,-21.01103 16.91501,-37.92604 37.92604,-37.92604 z"
       sodipodi:nodetypes="sssssscsss"
       transform="translate(-0.86355577,0.7634732)"
       inkscape:label="hand-border" /><path
       style="display:inline;fill:#60fc02;stroke:none"
       d="m 230,48 0.34344,-3.099073 0.94471,-3.820069 3.28679,-7.927021 c -8.19724,1.94162 -20.02962,4.900391 -27.92154,7.818232 -4.13835,1.530056 -9.13765,2.763378 -13.76238,4.395731 C 174.53899,51.845368 155.2761,60.864055 150,80 c -1.09293,6.004606 -1.2415,7.403089 -1.92758,17.018106 C 147.81894,104.2936 147.8501,123.00397 148.004,136 c 0.0454,3.83978 -0.65379,12.37805 1.94908,15.39661 3.86269,4.4797 21.95955,6.16458 27.58353,6.16458 27.05309,0 58.92889,-2.47849 83.46339,-15.87369 11.77722,-6.43005 19.28198,-16.03275 26.90048,-26.68365 2.42172,-3.38566 6.41641,-7.94562 11.05554,-5.78086 6.02619,2.81201 5.45371,9.89566 2.73996,14.77701 C 295.67764,134.82547 286.82959,145.00479 277,152.49692 249.68607,173.31564 204.56464,170 172,170 c 3.06828,20.39542 22.36346,22 39,22 23.05098,0 46.07059,-0.94934 69,-3.16977 11.60248,-1.12356 23.32245,-5.68008 35,-4.83023 -11.60535,16.4751 -32.34995,27.80035 -51,34.30478 -5.99805,2.09189 -15.57942,1.64905 -20.72223,4.87424 -6.63153,4.15881 -5.53976,16.70944 -12.3827,22.02081 -6.61174,5.13191 -16.37117,7.1642 -23.89507,10.82794 -12.06096,5.87305 -22.48512,13.58051 -31.9892,23.0116 C 160.09555,293.84009 151.27531,313.8551 143.45216,333 137.38637,347.84427 129.41196,366.35223 116,376 l -1,-8 C 85.717598,380.61792 60.184021,383.45154 32,364.9213 22.747681,358.83813 15.562019,347.84119 6,343 c 5.567116,43.82108 44.476164,72.64118 84.851843,81.63587 12.183337,2.71414 21.698787,4.26099 32.999997,3.47531 1.15706,-5.3566 -4.17655,-37.86048 13.00079,-25.3689 5.01875,3.64972 3.88065,11.85962 5.03163,17.25772 3.58045,16.7923 4.41774,34.22961 8,51 1.0669,4.99466 0.79743,14.8197 5.53472,17.97223 C 158.57335,491.07135 164.39212,490 168,490 h 29 c 2.89954,0 11.08319,1.38739 12.83873,-1.60339 1.36145,-2.31943 -1.31717,-5.64896 -2.60339,-7.39276 -2.84861,-3.86202 -8.93219,-12.33387 -14.50295,-12.91424 -3.83917,-0.39997 -3.53018,-4.19463 -3.11352,-6.75923 0.95634,-5.88644 14.44844,-5.01889 19.38113,-7.45385 8.42603,-4.15937 14.92209,-11.2725 18.66281,-19.87653 4.22003,-9.70651 5.30444,-20.52533 4.0517,-31 -0.77703,-6.49704 -4.62387,-17.86762 -4.62387,-17.86762 -4.01248,-5.36467 -7.95899,-15.98063 -4.00553,-17.295 3.60883,-1.1998 8.0408,4.61914 10.48514,10.55556 2.94319,7.14795 5.14151,24.83867 17.15506,5.6681 2.34097,-3.73559 6.17481,-9.48374 8.32483,-13.06104 6.15393,-10.23923 14.96924,-24.00986 15.94986,-36 -14.43607,2.24707 -25.98653,-1.00034 -37.38094,-8.61134 -6.50454,-4.34477 -9.82109,-12.82145 -10.82282,-16.5161 -1.54244,-5.68895 -2.01337,-10.81157 -1.54323,-17.2374 0.56309,-7.6964 0.46518,-15.7834 6.26121,-17.51989 7.99494,-2.3953 5.96047,7.32836 6.2487,16.3516 0.24669,7.72267 1.96724,15.55929 3.96471,18.48992 5.76311,8.45547 14.95508,12.81706 27.09268,11.54141 17.81282,-1.87211 17.08189,-2.91885 23.93284,-7.40492 4.00551,-2.62286 9.61581,-7.90253 8.51507,-12.71554 -1.91131,-8.35722 -6.46445,-7.75676 -10.87573,-9.1394 -7.05165,-2.21022 -14.89307,1.78031 -21.25901,-2.84173 -6.41464,-4.65741 -7.11312,-28.24469 2.88196,-29.20447 6.96925,-0.66922 0.0617,18.37796 4.99947,19.53505 0.8564,0.20068 2.83456,0.55167 4.96485,0.48215 2.03958,-0.0666 5.18203,-0.64377 6.04753,-0.85629 3.45488,-0.84835 5.49697,-13.40984 6.48891,-16.35305 2.34025,-6.94382 5.69581,-14.00598 9.92362,-19.99924 18.47226,-26.18579 55.19344,-20.19129 66.78664,9.22183 1.16769,-13.86791 0.13497,-44.24488 -0.20821,-58.25123 C 370.01155,152.88695 365.91961,119.49258 358.42361,79 355.78324,64.737003 350.49448,48.7134 339.68176,38.179805 336.89792,35.467825 333.52554,33.193879 330,31.320221 319.49574,25.737697 307.28483,23.166218 295.41049,23.503425 283.18432,23.850622 271.05039,26.995603 260,32.116516 250.26395,36.628347 240.49637,46.100464 230,48 Z"
       id="body-green"
       sodipodi:nodetypes="ccccssccccsssssscsscssssssccscscsssssssssssssssssscsssssssssssssssssccsssssc"
       inkscape:label="body-green" /><g
       id="g1591"
       inkscape:label="body-yellow"><path
         style="fill:#c8fa10;stroke:none"
         d="M 233.24552,26.618862 C 211.53425,33.039255 193.73959,36.732361 173,46.141968 162.23335,51.026825 149.28288,57.853119 143.91512,69 c -11.49884,23.878906 4.43546,78.51917 4.43546,78.51917 0.60904,-11.02084 -0.2288,-25.42852 -0.38002,-39.5928 -0.18039,-16.896066 0.95309,-33.445781 11.31879,-43.487314 8.75768,-8.483803 20.8297,-13.948988 33.19173,-18.443116 9.08295,-3.302046 18.42078,-6.481157 26.82659,-8.914873 5.10667,-1.478522 15.23718,-3.840317 15.23718,-3.840317 l 1.29062,-3.122893 c 0.46688,-1.129699 0.69423,-1.535519 1.21096,-2.546622 0.26071,-0.510131 0.64646,-1.143515 1.06964,-2.164168 z"
         id="body-yellow-l"
         sodipodi:nodetypes="csscsssscsscc"
         inkscape:label="l" /><path
         style="display:inline;fill:#c8fa10;stroke:none"
         d="m 230.25857,48.072443 c 8.35229,-1.388337 15.72389,-7.605952 21.06464,-10.943514 23.02905,-14.39142 52.2985,-18.520737 77.65867,-6.289078 14.22318,6.860077 22.18359,21.657189 26.4425,36.160149 2.90093,9.878596 4.40051,20.481842 6.09537,31.14949 3.38771,21.32263 6.49525,42.65169 7.74348,63.10299 C 369.20112,149.51716 368.51727,134.89682 368.03937,124 366.26312,83.498627 360.24011,25.455414 312,15.014648 277.63477,7.5768738 257.09515,30.323725 230.25857,48.072443 Z"
         id="body-yellow-r"
         sodipodi:nodetypes="csssscssc"
         inkscape:label="r" /></g><path
       id="nose"
       d="m 160.85199,92.50386 2.0818,1.091763 c 4.07928,2.742276 8.33458,5.969326 10.19388,10.653187 1.57175,4.30807 -2.10738,4.77385 -2.52559,4.76832 0,0 -3.91017,0.25638 -5.82224,-0.077 -5.80106,-1.01145 -7.06333,-4.15974 -7.72742,-5.65421 -1.31748,-2.96485 -2.75038,-7.189821 -0.784,-9.81951 0.93492,-1.250285 2.08814,-2.340225 4.58357,-0.96253 z m 41.30766,0 -2.0818,1.091763 c -4.07928,2.742276 -8.33458,5.969326 -10.19388,10.653187 -1.57175,4.30807 2.10738,4.77385 2.52559,4.76832 0,0 3.91017,0.25638 5.82224,-0.077 5.80106,-1.01145 7.06333,-4.15974 7.72742,-5.65421 1.31748,-2.96485 2.75038,-7.189821 0.784,-9.81951 -0.93492,-1.250285 -2.08814,-2.340225 -4.58357,-0.96253 z"
       sodipodi:nodetypes="ssssssass"
       inkscape:path-effect="#path-effect2"
       inkscape:original-d="m 160.85199,92.50386 2.0818,1.091763 c 4.07928,2.742276 8.33458,5.969326 10.19388,10.653187 1.57175,4.30807 -2.10738,4.77385 -2.52559,4.76832 0,0 -3.91017,0.25638 -5.82224,-0.077 -5.80106,-1.01145 -7.06333,-4.15974 -7.72742,-5.65421 -1.31748,-2.96485 -2.75038,-7.189821 -0.784,-9.81951 0.93492,-1.250285 2.08814,-2.340225 4.58357,-0.96253 z"
       transform="translate(-5.0356705,-12.630625)"
       style="fill:#000000;fill-opacity:0.886174"
       inkscape:label="nose" /><path
       id="eye"
       style="stroke-width:1.91549"
       inkscape:label="eye"
       d="M 307.11365,63.479469 A 13.036778,17.584492 0 0 1 294.07687,81.063961 13.036778,17.584492 0 0 1 281.0401,63.479469 13.036778,17.584492 0 0 1 294.07687,45.894978 13.036778,17.584492 0 0 1 307.11365,63.479469 Z" /><g
       id="g1595"
       inkscape:label="scale"><g
         id="g8"
         inkscape:label="scale"><path
           style="fill:#eef95f;stroke:none"
           d="m 56.673152,368.17246 c 3.65405,3.22291 12.813302,4.09222 16.578729,4.08489 4.436469,-0.009 11.035065,-0.95832 16.444708,-4.04349 -8.311373,-13.64177 -23.641109,-11.9456 -33.023437,-0.0414 z"
           id="path714-2-6"
           inkscape:label="l3"
           sodipodi:nodetypes="cscc" /><path
           style="fill:#eef95f;stroke:none"
           d="m 131.3167,343.43733 c 4.46517,-14.62808 5.66111,-16.23077 12.72329,-27.5855 -15.86069,1.90139 -19.66105,14.10939 -12.72329,27.5855 z"
           id="path714-2"
           inkscape:label="l2"
           sodipodi:nodetypes="ccc" /><path
           style="fill:#eef95f;stroke:none"
           d="m 168.2533,277.24082 c 5.3741,-6.31788 9.84503,-13.0047 23.9511,-18.68655 -14.96828,-5.57919 -23.94107,3.52943 -23.9511,18.68655 z"
           id="path714"
           inkscape:label="l1"
           sodipodi:nodetypes="ccc" /><path
           style="fill:#60fc02;stroke:none"
           d="m 381.06629,267.19974 -1,42 c 8.99492,-3.48521 17.31056,-9.97344 18.17349,-17.73464 0.28122,-2.52933 -0.12919,-5.16816 -1.08639,-7.7591 -2.4975,-6.76012 -8.71739,-13.19418 -16.0871,-16.50626 z"
           id="path818"
           inkscape:label="r4"
           sodipodi:nodetypes="ccssc" /><path
           style="fill:#eef95f;stroke:none;stroke-width:1.2802"
           d="m 379.4662,182.39992 v 29.80026 c 15.64785,-6.38341 15.64781,-23.41689 0,-29.80026 z"
           id="path550"
           inkscape:label="r3" /><path
           style="fill:#eef95f;stroke:none;stroke-width:1.23896"
           d="m 373.7121,96.412204 1.3662,33.279386 c 14.45277,-10.19315 16.13712,-25.39336 -1.3662,-33.279386 z"
           id="path290"
           inkscape:label="r2"
           sodipodi:nodetypes="ccc" /><path
           style="fill:#eef95f;stroke:none;stroke-width:1.17471"
           d="m 344.87149,22.705609 c 0,0 7.45934,6.508799 10.14568,10.398701 3.17097,4.591664 7.1368,14.467823 7.1368,14.467823 5.94325,-10.469197 3.6636,-27.250753 -17.28248,-24.866524 z"
           id="path7"
           inkscape:label="r1"
           sodipodi:nodetypes="cscc" /></g><g
         id="g9"
         inkscape:label="back mark"><ellipse
           style="fill:#40a701;fill-opacity:1;stroke-width:0.985352"
           id="path4"
           cx="-78.657425"
           cy="352.58655"
           rx="11.21885"
           ry="7.4119482"
           transform="matrix(0.70795613,-0.70625641,0.6119892,0.79086612,0,0)"
           inkscape:label="3" /><ellipse
           style="fill:#40a701;fill-opacity:1"
           id="path6"
           cx="169.97498"
           cy="335.07101"
           rx="0.66995502"
           ry="1.6748875"
           inkscape:label="small" /><ellipse
           style="fill:#40a701;fill-opacity:1"
           id="path8"
           cx="320.90866"
           cy="193.9469"
           rx="7.0345278"
           ry="8.3744373"
           transform="rotate(29.045239)"
           inkscape:label="2" /><path
           style="fill:#40a701;fill-opacity:1;stroke:none"
           d="m 174.70036,287.50882 -8.33582,10.56539 -7.65255,10.57426 -3.96933,8.03685 c -4.27173,8.64914 23.65868,2.18277 27.18959,-3.77448 1.6699,-2.81741 3.5264,-8.34867 4.0748,-14.02099 0.98957,-10.2355 -0.89337,-20.79163 -5.97838,-15.70671 -2.41732,2.41728 -2.65109,2.26271 -5.32831,4.32568 z"
           id="path818-1"
           inkscape:label="1"
           sodipodi:nodetypes="cccssssc"
           inkscape:transform-center-x="6.5926696"
           inkscape:transform-center-y="21.975565" /></g></g></g><metadata
     id="metadata9"><rdf:RDF><cc:Work
         rdf:about=""><dc:title>portosaurus Icon</dc:title><dc:creator><cc:Agent><dc:title>soymadip</dc:title></cc:Agent></dc:creator><dc:publisher><cc:Agent><dc:title>soymadip</dc:title></cc:Agent></dc:publisher><dc:language>en</dc:language></cc:Work></rdf:RDF></metadata></svg>